<svg xmlns="http://www.w3.org/2000/svg" version="1.1" xmlns:xlink="http://www.w3.org/1999/xlink" xmlns:svgjs="http://svgjs.com/svgjs" width="1980" height="1080" preserveAspectRatio="none" viewBox="0 0 1980 1080"><g mask="url(&quot;#SvgjsMask1058&quot;)" fill="none"><path d="M2145 1080L0 1080 L0 490.58Q157.38 482.96, 165 640.33Q181.14 491.48, 330 507.62Q337.94 350.57, 495 358.51Q569.11 267.62, 660 341.72Q788.71 305.43, 825 434.14Q943.27 387.41, 990 505.69Q1131.59 482.27, 1155 623.86Q1163.3 533.16, 1254 541.47Q1233.93 422.4, 1353 402.34Q1383.22 333.56, 1452 363.78Q1528.49 275.26, 1617 351.75Q1658.06 293.81, 1716 334.87Q1783.13 303, 1815 370.12Q1958.01 348.13, 1980 491.15Q1996.48 342.63, 2145 359.11z" fill="rgba(254, 176, 151, 1)"></path><path d="M2079 1080L0 1080 L0 853.53Q36.31 724.84, 165 761.14Q222.12 653.25, 330 710.37Q356.33 637.7, 429 664.04Q496.49 566.52, 594 634.01Q677.92 618.93, 693 702.86Q722.9 567.76, 858 597.67Q918.28 558.95, 957 619.23Q1054.72 617.95, 1056 715.67Q1197.16 691.83, 1221 832.99Q1336.4 783.39, 1386 898.8Q1454.91 802.71, 1551 871.62Q1603.79 759.41, 1716 812.21Q1756.08 753.29, 1815 793.37Q1886.77 700.14, 1980 771.91Q1981.32 674.23, 2079 675.55z" fill="rgba(212, 169, 70, 1)"></path><path d="M2046 1080L0 1080 L0 1067.21Q15.16 983.38, 99 998.54Q158.48 893.01, 264 952.49Q263.86 853.35, 363 853.21Q404.13 795.34, 462 836.47Q567.21 776.68, 627 881.9Q751.77 907.67, 726 1032.44Q834.46 1041.9, 825 1150.36Q806.64 967, 990 948.64Q1059.14 852.78, 1155 921.92Q1191.8 859.72, 1254 896.52Q1338.31 881.83, 1353 966.13Q1441.88 890, 1518 978.88Q1525.18 887.06, 1617 894.24Q1638.13 816.37, 1716 837.49Q1810.81 767.3, 1881 862.11Q1970.9 787.01, 2046 876.91z" fill="rgba(128, 179, 201, 1)"></path></g><defs><mask id="SvgjsMask1058"><rect width="1980" height="1080" fill="#ffffff"></rect></mask></defs></svg>